# xmcd
#
# Track frame offsets: 
#        151
#        18925
#        35690
#        58042
#        71591
#        94580
#        107648
#        129755
#        145267
#        164457
#
# Disc length: 2445 seconds
#
# Revision: 9
# Processed by: cddbd v1.5.2PL0 Copyright (c) Steve Scherf et al.
# Submitted via: ExactAudioCopy v1.1
#
DISCID=81098b0a
DTITLE=Woven Hand - Woven Hand
DYEAR=2002
DGENRE=Alternative
TTITLE0=The Good Hand
TTITLE1=My Russia
TTITLE2=Blue Pail Fever
TTITLE3=Glass Eye
TTITLE4=Wooden Brother
TTITLE5=Ain't No Sunshine
TTITLE6=Story And Pictures
TTITLE7=Arrowhead
TTITLE8=Your Russia
TTITLE9=Last Fist
EXTD=
EXTT0=
EXTT1=
EXTT2=
EXTT3=
EXTT4=
EXTT5=
EXTT6=
EXTT7=
EXTT8=
EXTT9=
PLAYORDER=
